<?xml version="1.0" encoding="UTF-8" standalone="no"?>
<!-- Created with Inkscape (http://www.inkscape.org/) -->
<svg
   xmlns:dc="http://purl.org/dc/elements/1.1/"
   xmlns:cc="http://web.resource.org/cc/"
   xmlns:rdf="http://www.w3.org/1999/02/22-rdf-syntax-ns#"
   xmlns:svg="http://www.w3.org/2000/svg"
   xmlns="http://www.w3.org/2000/svg"
   xmlns:sodipodi="http://sodipodi.sourceforge.net/DTD/sodipodi-0.dtd"
   xmlns:inkscape="http://www.inkscape.org/namespaces/inkscape"
   width="744.09448819"
   height="1052.3622047"
   id="svg2"
   sodipodi:version="0.32"
   inkscape:version="0.45+devel"
   sodipodi:docname="ideas.svg"
   inkscape:output_extension="org.inkscape.output.svg.inkscape">
  <defs
     id="defs4" />
  <sodipodi:namedview
     id="base"
     pagecolor="#ffffff"
     bordercolor="#666666"
     borderopacity="1.0"
     gridtolerance="10000"
     guidetolerance="10"
     objecttolerance="10"
     inkscape:pageopacity="0.0"
     inkscape:pageshadow="2"
     inkscape:zoom="1.0957579"
     inkscape:cx="386.02257"
     inkscape:cy="809.6136"
     inkscape:document-units="px"
     inkscape:current-layer="layer1"
     showguides="false"
     inkscape:window-width="1028"
     inkscape:window-height="685"
     inkscape:window-x="0"
     inkscape:window-y="22" />
  <metadata
     id="metadata7">
    <rdf:RDF>
      <cc:Work
         rdf:about="">
        <dc:format>image/svg+xml</dc:format>
        <dc:type
           rdf:resource="http://purl.org/dc/dcmitype/StillImage" />
      </cc:Work>
    </rdf:RDF>
  </metadata>
  <g
     inkscape:label="Layer 1"
     inkscape:groupmode="layer"
     id="layer1">
    <rect
       style="opacity:1;fill:#ffffff;fill-opacity:1;fill-rule:evenodd;stroke:none;stroke-width:10;stroke-linecap:round;stroke-linejoin:round;stroke-miterlimit:4;stroke-dasharray:none;stroke-dashoffset:0;stroke-opacity:1"
       id="rect3558"
       width="114.98891"
       height="134.15372"
       x="-13.689156"
       y="-0.79015493" />
    <path
       style="fill:#0000ec;fill-opacity:1"
       d="M 68.461909,43.728027 C 66.484322,42.901757 63.627541,42.255137 62.113501,42.291147 C 58.560895,42.375607 48.644408,45.606927 48.36141,46.772307 C 48.241813,47.264787 47.864698,49.337427 47.523355,51.378207 C 46.918961,54.991937 44.024065,56.833687 44.024065,53.604487 C 44.024065,51.683867 43.129631,51.727587 40.886231,53.757847 C 38.978407,55.484387 38.405582,59.046527 40.035756,59.046527 C 40.563202,59.046527 42.678172,58.184507 44.735685,57.130927 C 46.793217,56.077337 50.090689,54.925087 52.063422,54.570347 C 55.009183,54.040657 55.650214,53.501517 55.650214,51.553737 C 55.650214,48.838837 58.385764,44.204607 59.988366,44.204607 C 60.702078,44.204607 60.820294,45.455657 60.338968,47.915087 C 59.231425,53.574347 59.26031,54.345547 60.597527,54.817267 C 61.357716,55.085457 61.835784,54.363867 61.83804,52.944847 C 61.843224,49.713627 65.654048,43.670677 66.900494,44.917137 C 67.900181,45.916837 65.317217,52.770737 63.318536,54.421917 C 62.677894,54.951167 62.767263,55.416977 63.572066,55.743247 C 64.255714,56.020387 64.553069,56.671057 64.232869,57.189147 C 63.672299,58.096187 70.459238,65.722867 71.976312,65.890667 C 72.384481,65.935807 72.718413,65.300487 72.718413,64.478867 C 72.718413,63.053807 71.373367,61.593587 67.500736,58.814387 C 65.844078,57.625487 65.837096,57.279347 67.375935,52.611477 C 68.038373,50.602067 68.986795,48.563157 69.775463,47.365247 C 70.564111,46.167307 72.164388,48.302347 72.02886,48.734457 C 71.893313,49.166577 71.920117,49.650187 72.200091,50.103207 C 72.713413,50.933777 73.269724,50.915587 74.332637,50.033467 C 75.33029,49.205467 75.437624,48.493987 74.739259,47.808607 C 72.822118,46.217067 70.730955,44.767277 68.461909,43.728027 z M 40.954642,107.05654 C 39.105503,105.70767 36.576223,104.07119 35.334014,103.4199 C 34.091805,102.7686 31.731458,99.419637 30.088803,95.977757 C 28.160184,91.936697 26.506649,89.716357 25.42114,89.710117 C 22.280443,89.692057 13.50932,84.944797 11.801828,82.338837 C 9.3175355,78.547327 11.075553,75.486017 17.266663,72.822667 C 20.010765,71.642187 22.255937,70.291897 22.255937,69.822007 C 22.255937,69.352127 20.68023,68.309297 18.754367,67.504627 C 15.993516,66.351077 15.31856,65.563347 15.563676,63.780877 C 16.001596,60.596307 17.141691,59.061007 19.826653,58.040197 C 23.371392,56.692477 25.150623,53.139357 26.111093,45.490137 C 27.219181,36.665267 29.031199,32.896987 35.19196,26.605437 C 41.683116,19.976507 51.531659,15.161797 58.515155,15.203317 C 64.64097,15.239737 71.358749,18.244237 76.657062,23.317237 C 79.839391,26.364207 80.316058,27.364327 79.901052,30.123487 C 79.63095,31.919097 78.365333,34.183217 77.055942,35.213197 C 74.069148,37.562607 74.101943,39.154837 77.197588,42.091337 C 81.714362,46.375917 81.583989,50.454187 76.566418,61.836847 C 74.276802,67.030987 74.270295,67.142587 76.076777,70.247267 C 77.083718,71.977807 78.760674,75.009797 79.803358,76.985017 C 80.84605,78.960267 82.572665,81.366867 83.640275,82.333037 C 87.825374,86.120497 84.337307,97.592037 78.223921,100.14638 C 76.319259,100.94219 73.81807,101.59331 72.665758,101.59331 C 71.513446,101.59331 69.190928,103.15172 67.504617,105.05643 C 65.818315,106.96113 63.997663,108.51954 63.458732,108.51954 C 62.919811,108.51954 63.524604,107.4064 64.802727,106.04588 C 67.011183,103.69509 66.380451,102.3903 64.125594,104.64515 C 63.535497,105.23524 60.218351,105.88053 56.754131,106.0791 C 50.455549,106.44015 50.455549,106.44015 56.004006,105.64642 C 59.055652,105.20988 62.061148,104.53832 62.682864,104.15406 C 65.117354,102.64948 63.593073,101.59331 58.987134,101.59331 C 55.904308,101.59331 53.716024,101.05719 52.929205,100.10912 C 51.061403,97.858557 49.26093,98.325967 48.526513,101.25209 C 48.100867,102.94801 48.325911,104.20057 49.161358,104.78574 C 49.974885,105.35557 48.709979,105.45978 45.75562,105.06635 C 40.178316,104.3236 39.384902,105.90995 44.271419,108.03383 C 46.040078,108.80258 46.773814,109.44896 45.901933,109.47026 C 45.030073,109.49157 42.803771,108.40539 40.954642,107.05654 z M 47.419144,98.377557 C 49.614061,93.010737 50.14028,90.709247 49.172465,90.709247 C 48.232971,90.709247 45.013519,98.202807 45.013519,100.38957 C 45.013519,102.54913 46.076744,101.6599 47.419144,98.377557 z M 43.318709,98.857677 C 45.133155,96.852737 47.168172,88.852587 46.258818,87.299407 C 44.785568,84.783057 36.775641,75.867347 35.988185,75.867347 C 34.255154,75.867347 35.205448,77.771087 39.681099,83.265397 C 44.243283,88.865957 44.243283,88.865957 43.015616,93.250707 C 41.730869,97.839377 40.747843,98.354437 36.750802,96.533257 C 34.222606,95.381337 33.056833,92.008707 33.241391,86.380357 C 33.316015,84.104607 33.677779,84.821607 34.611702,89.096287 C 36.74554,98.863077 41.97374,99.482097 42.031637,89.974777 C 42.039116,88.744617 40.722625,86.577767 39.076763,85.111297 C 37.444157,83.656637 36.108381,81.926687 36.108381,81.266977 C 36.108381,79.292567 33.441806,77.515027 32.770283,79.041787 C 32.461091,79.744757 32.306477,79.475597 32.426697,78.443637 C 32.54691,77.411697 32.088699,76.372757 31.408444,76.134897 C 30.050459,75.660067 29.956455,76.332977 30.063535,85.761947 C 30.179965,96.014447 30.70447,97.306047 35.431572,98.980857 C 40.897805,100.91754 41.462547,100.90871 43.318709,98.857677 z M 59.628904,98.809787 C 59.869926,98.086737 59.417565,97.865607 58.453922,98.235387 C 57.592147,98.566087 56.887052,99.271387 56.887052,99.802707 C 56.887052,101.10325 59.135869,100.28887 59.628904,98.809787 z M 79.717781,98.084987 C 80.229489,97.768737 81.365199,96.123417 82.241553,94.428707 C 83.731785,91.546937 83.719073,91.262687 82.045405,90.038867 C 81.04283,89.305767 77.702624,88.730327 74.449822,88.730327 C 68.196047,88.730327 67.471374,87.268557 73.193017,86.195177 C 75.429308,85.775637 77.647304,86.101427 79.77242,87.161577 C 83.218899,88.880907 85.296135,88.034767 84.259637,85.333727 C 83.446675,83.215177 74.589026,83.350837 68.936873,85.568387 C 65.593126,86.880287 64.097954,88.275467 62.080454,91.966407 C 59.042035,97.525037 59.637259,98.675467 66.01991,99.580387 C 70.045332,100.1511 77.732638,99.311877 79.717781,98.084987 z M 55.957323,92.688177 C 56.468672,92.688177 56.887052,93.356057 56.887052,94.172357 C 56.887052,94.988667 57.362318,95.656547 57.943196,95.656547 C 58.553854,95.656547 58.730735,94.810307 58.362558,93.650267 C 57.068719,89.573777 67.218155,82.848147 75.934169,82.006287 C 81.142996,81.503177 81.087667,81.557057 79.510613,78.523307 C 77.873582,75.374167 77.886002,75.376077 75.798719,77.953457 C 74.185789,79.945087 72.967264,80.328447 68.105655,80.373767 C 64.579941,80.406627 61.040221,81.109767 59.021378,82.178287 C 57.202146,83.141147 55.494302,83.709557 55.226155,83.441417 C 54.958017,83.173297 55.709172,82.434487 56.895378,81.799647 C 58.081573,81.164817 59.92157,78.679817 60.984259,76.277457 C 63.139476,71.405227 64.189979,70.558797 63.203471,74.489357 C 62.437776,77.540137 63.916395,78.798437 68.293041,78.820577 C 72.320125,78.840937 75.686796,76.333157 75.686796,73.313097 C 75.686796,70.385037 72.615748,68.941117 66.388116,68.941117 C 62.651528,68.941117 61.799497,69.396627 58.984945,72.898967 C 56.892012,75.503337 55.004447,76.856797 53.465266,76.856797 C 50.51755,76.856797 45.617554,71.319197 46.557281,69.049937 C 48.09191,65.344097 48.187397,63.742877 46.920498,62.959887 C 45.915589,62.338817 46.271414,61.863867 48.327214,61.082247 C 52.558792,59.473407 57.496436,59.833417 61.068328,62.011207 C 62.850155,63.097567 63.696915,63.988087 62.950009,63.990127 C 61.855138,63.993097 61.830697,64.281377 62.823818,65.478017 C 64.549256,67.557057 66.781647,67.327617 66.781647,65.071237 C 66.781647,60.738607 57.237441,55.958277 51.77841,57.556677 C 45.310893,59.450367 44.024065,60.459017 44.024065,63.634767 C 44.024065,65.630407 43.43104,66.978047 42.37442,67.383507 C 41.146053,67.854867 41.010914,68.302677 41.845254,69.137027 C 42.679593,69.971367 42.532336,70.577127 41.268617,71.509047 C 39.71154,72.657327 39.836856,73.035547 42.787237,76.092627 C 45.870248,79.287127 47.090036,81.603277 45.013519,80.319917 C 44.469327,79.983577 44.024065,80.385217 44.024065,81.212437 C 44.024065,82.703947 47.704798,86.751417 49.061145,86.751417 C 49.952001,86.751417 51.947978,92.350107 51.291259,93.006827 C 51.023463,93.274617 51.6164,94.982187 52.608879,96.801427 C 54.413396,100.10912 54.413396,100.10912 54.720496,96.398637 C 54.889392,94.357887 55.445975,92.688177 55.957323,92.688177 z M 26.037913,84.456827 C 26.213283,82.932017 25.824819,81.043467 25.174659,80.260087 C 24.228578,79.120117 24.313079,78.835727 25.597898,78.835727 C 29.307321,78.835727 26.790424,77.112857 21.744995,76.198347 C 17.443016,75.418587 15.870976,75.500227 14.324044,76.583747 C 11.178657,78.786847 11.99645,79.353007 17.802016,78.991527 C 21.102383,78.786017 23.245398,79.054527 23.245398,79.673577 C 23.245398,80.244507 21.391659,80.611997 19.040192,80.507247 C 13.527107,80.261647 13.419801,82.418987 18.792827,85.480417 C 23.718996,88.287217 25.628393,88.017457 26.037913,84.456827 z M 29.70419,72.812927 C 30.064659,71.677217 30.05203,69.116987 29.676135,67.123557 C 28.992689,63.499087 28.992689,63.499087 25.585825,67.456927 C 19.616144,74.392067 19.553446,74.877887 24.628101,74.877887 C 28.241188,74.877887 29.168535,74.500637 29.70419,72.812927 z M 55.897598,73.888427 C 55.897598,73.344207 54.535541,72.898967 52.870821,72.898967 C 51.104915,72.898967 50.098781,73.311147 50.455549,73.888427 C 50.791893,74.432617 52.15394,74.877887 53.482325,74.877887 C 54.81072,74.877887 55.897598,74.432617 55.897598,73.888427 z M 36.761957,69.116647 C 35.858284,68.118097 35.118924,66.111717 35.118924,64.658007 C 35.118924,62.498337 34.666481,62.014897 32.645272,62.014897 C 28.981006,62.014897 29.480651,65.161057 33.738639,68.899617 C 37.43732,72.147097 39.648109,72.305807 36.761957,69.116647 z M 59.680625,67.314427 C 59.504658,66.419737 58.191844,64.815937 56.763244,63.750367 C 54.619066,62.151097 53.788403,62.014987 52.003182,62.970417 C 49.149163,64.497827 49.889454,66.387067 53.50024,66.790967 C 55.09088,66.968897 56.815316,67.525467 57.332314,68.027797 C 58.812917,69.466417 60.031072,69.096367 59.680625,67.314427 z M 25.902641,64.810797 C 29.045123,61.858587 28.799669,60.404367 25.585613,62.932557 C 24.151712,64.060447 22.03674,64.965857 20.885674,64.944557 C 19.200908,64.913377 19.386615,64.647257 21.83807,63.579807 C 23.512952,62.850507 26.341946,60.530347 28.124711,58.423887 C 29.907483,56.317417 30.873518,55.568747 30.271459,56.760187 C 29.6694,57.951617 29.567249,59.167727 30.044463,59.462657 C 31.19629,60.174527 36.108381,55.568487 36.108381,53.776557 C 36.108381,53.002927 38.591674,49.586887 41.626805,46.185357 C 46.011513,41.271317 47.025166,39.522387 46.560821,37.672297 C 46.093764,35.811357 46.44136,35.227157 48.292124,34.762647 C 49.565764,34.442967 51.686717,34.321677 53.005347,34.493077 C 54.323988,34.664507 55.625492,34.359487 55.897598,33.815277 C 56.754442,32.101557 49.253374,32.134437 45.918399,33.859027 C 43.47713,35.121457 43.064526,35.700737 44.127343,36.373707 C 44.886852,36.854607 45.031824,37.254897 44.449536,37.263227 C 42.035352,37.297787 34.844653,44.823687 31.100537,51.234497 C 26.881741,58.458087 19.429372,64.914007 18.506299,62.144777 C 18.140542,61.047517 17.911925,61.038757 17.2579,62.096997 C 15.970908,64.179387 18.105688,66.962197 20.990154,66.962197 C 22.432489,66.962197 24.643108,65.994077 25.902641,64.810797 z M 49.508421,53.178247 C 48.901147,52.195657 50.181644,48.970627 52.183146,46.441797 C 53.827014,44.364807 54.845539,46.067757 53.782801,49.116337 C 52.565434,52.608487 50.417697,54.649467 49.508421,53.178247 z M 38.087299,60.530707 C 38.087299,59.706157 37.207783,59.046527 36.108381,59.046527 C 33.918424,59.046527 33.427332,60.577217 35.366287,61.359597 C 37.519424,62.228407 38.087299,62.055417 38.087299,60.530707 z M 76.291433,56.064887 C 76.940225,52.615037 76.940225,52.615037 74.318243,56.393537 C 72.876134,58.471717 71.978928,60.629407 72.324405,61.188427 C 73.328379,62.812867 75.565818,59.923117 76.291433,56.064887 z M 25.246594,57.314977 C 28.34644,53.607537 34.2154,43.924337 36.188629,39.261707 C 39.272026,31.975797 46.703118,26.394337 53.32011,26.394337 C 58.092525,26.394337 61.777196,27.962287 65.544829,31.596417 C 67.775166,33.747707 68.760585,34.228207 68.760585,33.164407 C 68.760585,30.839617 64.469369,26.696487 60.199969,24.899187 C 49.788443,20.516257 38.563596,28.392047 30.572999,45.686647 C 28.534249,50.099257 25.426912,54.835837 23.070848,57.122317 C 20.509234,59.608267 19.610857,61.025437 20.596566,61.025437 C 21.447764,61.025437 23.540275,59.355727 25.246594,57.314977 z M 71.636612,55.917687 C 72.236514,54.196847 72.441746,52.527127 72.09267,52.207217 C 71.743625,51.887307 71.2566,52.190087 71.010423,52.880067 C 70.764226,53.570027 69.906292,54.791067 69.103873,55.593487 C 68.301463,56.395897 67.922239,57.501097 68.26115,58.049467 C 69.366292,59.837627 70.525285,59.105667 71.636612,55.917687 z M 48.656896,44.715667 C 51.139655,42.819937 53.561862,41.510437 54.03957,41.805687 C 54.517277,42.100937 54.908133,41.870947 54.908133,41.294627 C 54.908133,39.929287 54.474629,39.968437 50.671148,41.677247 C 46.149044,43.708907 41.285364,48.162457 43.588684,48.162457 C 43.893439,48.162457 46.174137,46.611407 48.656896,44.715667 z M 76.67626,43.817327 C 76.67626,42.453167 70.074352,39.257317 67.256368,39.257317 C 64.457222,39.257317 65.812422,41.019797 69.083401,41.633417 C 70.893559,41.973017 73.231162,42.898917 74.278076,43.690997 C 76.653122,45.487937 76.67626,45.489167 76.67626,43.817327 z M 57.876507,40.246767 C 57.876507,39.702567 57.431244,39.257317 56.887052,39.257317 C 56.342841,39.257317 55.897598,39.702567 55.897598,40.246767 C 55.897598,40.790967 56.342841,41.236237 56.887052,41.236237 C 57.431244,41.236237 57.876507,40.790967 57.876507,40.246767 z M 64.802727,39.257317 C 64.802727,38.713107 63.466961,38.267857 61.834354,38.267857 C 60.201739,38.267857 58.865971,38.713107 58.865971,39.257317 C 58.865971,39.801517 60.201739,40.246767 61.834354,40.246767 C 63.466961,40.246767 64.802727,39.801517 64.802727,39.257317 z M 57.134416,38.215827 C 61.058165,37.126137 62.171894,35.299467 58.912528,35.299467 C 56.467135,35.299467 51.93974,37.329937 51.93974,38.426677 C 51.93974,39.495467 52.627075,39.467577 57.134416,38.215827 z M 72.718413,36.288937 C 72.718413,35.744737 72.273151,35.299467 71.728958,35.299467 C 71.184747,35.299467 70.739494,35.744737 70.739494,36.288937 C 70.739494,36.833137 71.184747,37.278397 71.728958,37.278397 C 72.273151,37.278397 72.718413,36.833137 72.718413,36.288937 z M 53.202254,31.018057 C 55.801343,31.089357 59.013792,31.859217 60.34103,32.728857 C 61.668269,33.598497 63.201137,34.310017 63.747411,34.310017 C 65.793806,34.310017 63.584817,31.577637 59.834253,29.469697 C 56.819468,27.775297 55.108454,27.437057 52.211759,27.962837 C 48.712197,28.598047 41.055682,31.893817 41.055682,32.765017 C 41.055682,32.981547 40.767364,33.910067 40.414962,34.828387 C 39.935212,36.078607 40.867373,35.793427 44.125436,33.693227 C 47.486087,31.526917 49.55242,30.917907 53.202254,31.018057 z M 34.903519,33.473417 C 35.187076,32.621867 34.711313,32.265297 33.58331,32.483957 C 32.613377,32.671987 31.620307,33.424917 31.376482,34.157147 C 31.09293,35.008697 31.568688,35.365267 32.69669,35.146597 C 33.666624,34.958587 34.659692,34.205647 34.903519,33.473417 z M 38.850008,28.558777 C 39.065422,27.912527 38.536675,27.383787 37.675026,27.383787 C 36.813367,27.383787 36.108381,28.088777 36.108381,28.950437 C 36.108381,30.697747 38.238456,30.393457 38.850008,28.558777 z M 74.202614,27.383787 C 73.723876,26.609207 73.154699,26.551717 72.495062,27.211367 C 71.95086,27.755567 71.828735,28.723667 72.223695,29.362717 C 72.702404,30.137307 73.271601,30.194777 73.931228,29.535147 C 74.475429,28.990947 74.597546,28.022817 74.202614,27.383787 z M 43.777159,24.662767 C 44.018716,23.937317 43.3367,23.425947 42.127601,23.425947 C 40.912208,23.425947 40.066227,24.064827 40.066227,24.982687 C 40.066227,26.801197 43.15379,26.535027 43.777159,24.662767 z M 71.502203,25.219347 C 70.890641,23.384657 68.760585,23.080377 68.760585,24.827687 C 68.760585,25.689347 69.465563,26.394337 70.327221,26.394337 C 71.188861,26.394337 71.717628,25.865587 71.502203,25.219347 z M 48.47663,22.436487 C 48.812965,21.892287 48.824985,21.021217 48.503347,20.500787 C 47.689441,19.183867 45.013519,20.369957 45.013519,22.047617 C 45.013519,23.629677 47.562326,23.915867 48.47663,22.436487 z M 67.575896,20.832187 C 67.828415,19.062327 67.476996,18.809297 65.334977,19.218767 C 62.474578,19.765557 61.406131,20.943117 62.364055,22.493077 C 63.478913,24.296957 67.25312,23.094207 67.575896,20.832187 z M 54.66076,20.210197 C 54.434005,19.529947 53.432189,18.973377 52.434478,18.973377 C 51.436775,18.973377 50.43494,19.529947 50.208185,20.210197 C 49.947079,20.993527 50.763387,21.447037 52.434478,21.447037 C 54.105558,21.447037 54.921875,20.993527 54.66076,20.210197 z M 60.630233,19.632207 C 60.925857,18.735257 60.341215,18.418107 58.806314,18.642757 C 57.563864,18.824597 56.351545,19.567417 56.112244,20.293467 C 55.816631,21.190417 56.401253,21.507567 57.936174,21.282927 C 59.178604,21.101077 60.390923,20.358257 60.630233,19.632207 z"
       id="path2201"
       sodipodi:nodetypes="csssssssssssssssssscssccsscccssssssssssssssssssssssssssssssssssssccssccsssssssssssssssccssccsssssssssccssssssssssssssssssssssssssssssssssssccssssssssccsssccsssccsssccssssccsssssssssssssssssssccssccssccssccssssssssccssssccssssccsssccsssccsssccssccsssccsssssssccsssccssccsssccssccssccssccssccsssccsssc"
       inkscape:export-filename="/Users/benjamin/Sites/public_html/mascot.png"
       inkscape:export-xdpi="95.472908"
       inkscape:export-ydpi="95.472908" />
    <text
       xml:space="preserve"
       style="font-size:42.2708168px;font-style:normal;font-weight:normal;fill:#0000ec;fill-opacity:1;stroke:none;stroke-width:1px;stroke-linecap:butt;stroke-linejoin:miter;stroke-opacity:1;font-family:Georgia"
       x="101.40318"
       y="48.17997"
       id="text2786"><tspan
         sodipodi:role="line"
         id="tspan2788"
         x="101.40318"
         y="48.17997">WIDEFIELD HIGH SCHOOL</tspan></text>
    <text
       xml:space="preserve"
       style="font-size:66.05529022px;font-style:normal;font-weight:normal;fill:#0000ec;fill-opacity:1;stroke:none;stroke-width:1px;stroke-linecap:butt;stroke-linejoin:miter;stroke-opacity:1;font-family:Georgia"
       x="102.45918"
       y="102.52818"
       id="text2790"><tspan
         sodipodi:role="line"
         id="tspan2792"
         x="102.45918"
         y="102.52818">CROSS COUNTRY</tspan></text>
    <path
       style="fill:#0000ec;fill-opacity:1"
       d="M 717.77879,47.360277 C 715.8012,46.534007 712.94442,45.887387 711.43037,45.923397 C 707.87778,46.007867 697.96129,49.239177 697.67829,50.404547 C 697.55868,50.897037 697.18158,52.969677 696.84023,55.010457 C 696.23583,58.624197 693.34094,60.465947 693.34094,57.236737 C 693.34094,55.316107 692.44651,55.359837 690.20311,57.390087 C 688.29528,59.116647 687.72246,62.678777 689.35263,62.678777 C 689.88008,62.678777 691.99505,61.816757 694.05256,60.763167 C 696.1101,59.709587 699.40756,58.557347 701.3803,58.202607 C 704.32606,57.672907 704.96709,57.133757 704.96709,55.185987 C 704.96709,52.471087 707.70264,47.836867 709.30524,47.836867 C 710.01896,47.836867 710.13717,49.087917 709.65585,51.547347 C 708.5483,57.206597 708.57719,57.977797 709.9144,58.449527 C 710.6746,58.717697 711.15266,57.996127 711.15492,56.577107 C 711.1601,53.345867 714.97093,47.302927 716.21737,48.549387 C 717.21706,49.549077 714.6341,56.402987 712.63541,58.054167 C 711.99477,58.583417 712.08414,59.049237 712.88894,59.375497 C 713.5726,59.652647 713.86995,60.303307 713.54974,60.821407 C 712.98918,61.728437 719.77612,69.355107 721.29319,69.522917 C 721.70135,69.568057 722.03529,68.932747 722.03529,68.111117 C 722.03529,66.686057 720.69025,65.225827 716.81761,62.446627 C 715.16096,61.257737 715.15397,60.911597 716.69281,56.243717 C 717.35525,54.234317 718.30367,52.195417 719.09234,50.997487 C 719.88099,49.799557 721.48126,51.934607 721.34573,52.366717 C 721.21019,52.798817 721.237,53.282427 721.51697,53.735447 C 722.03029,54.566027 722.5866,54.547837 723.64951,53.665717 C 724.64717,52.837717 724.7545,52.126237 724.05614,51.440857 C 722.139,49.849327 720.04783,48.399537 717.77879,47.360277 z M 690.27152,110.68878 C 688.42238,109.33992 685.89311,107.70343 684.65089,107.05214 C 683.40868,106.40085 681.04834,103.05188 679.40569,99.609997 C 677.47706,95.568937 675.82352,93.348617 674.73801,93.342367 C 671.59733,93.324307 662.8262,88.577057 661.11871,85.971087 C 658.63441,82.179587 660.39243,79.118277 666.58354,76.454917 C 669.32764,75.274447 671.57282,73.924147 671.57282,73.454257 C 671.57282,72.984377 669.9971,71.941547 668.07125,71.136887 C 665.31039,69.983327 664.63544,69.195607 664.88056,67.413117 C 665.31847,64.228547 666.45857,62.693257 669.14353,61.672447 C 672.68827,60.324727 674.4675,56.771607 675.42796,49.122397 C 676.53606,40.297517 678.34807,36.529227 684.50884,30.237687 C 690.99999,23.608767 700.84854,18.794037 707.83203,18.835557 C 713.95785,18.871977 720.67562,21.876487 725.97394,26.949497 C 729.15627,29.996457 729.63293,30.996587 729.21793,33.755737 C 728.94783,35.551347 727.68221,37.815477 726.37282,38.845447 C 723.38603,41.194847 723.41882,42.787077 726.51446,45.723597 C 731.03124,50.008157 730.90086,54.086437 725.88329,65.469097 C 723.59367,70.663237 723.58717,70.774847 725.39365,73.879517 C 726.4006,75.610057 728.07756,78.642047 729.12024,80.617277 C 730.16293,82.592517 731.88955,84.999117 732.95715,85.965297 C 737.14225,89.752757 733.65419,101.22429 727.5408,103.77862 C 725.63614,104.57444 723.13494,105.22556 721.98263,105.22556 C 720.83032,105.22556 718.5078,106.78397 716.82149,108.68868 C 715.13519,110.59338 713.31454,112.15179 712.77561,112.15179 C 712.23669,112.15179 712.84148,111.03864 714.1196,109.67814 C 716.32806,107.32733 715.69733,106.02255 713.44247,108.2774 C 712.85237,108.8675 709.53523,109.51277 706.07101,109.71136 C 699.77243,110.0724 699.77243,110.0724 705.32089,109.27867 C 708.37253,108.84213 711.37802,108.17058 711.99974,107.78632 C 714.43423,106.28173 712.90995,105.22556 708.30402,105.22556 C 705.22118,105.22556 703.03291,104.68944 702.24608,103.74138 C 700.37828,101.49081 698.5778,101.95822 697.84339,104.88434 C 697.41775,106.58026 697.64279,107.83283 698.47823,108.418 C 699.29176,108.98783 698.02686,109.09204 695.0725,108.6986 C 689.4952,107.95585 688.70178,109.54221 693.58829,111.66609 C 695.35695,112.43483 696.09069,113.08122 695.21881,113.10252 C 694.34695,113.12381 692.12065,112.03764 690.27152,110.68878 z M 696.73602,102.00981 C 698.93093,96.642987 699.45716,94.341497 698.48934,94.341497 C 697.54985,94.341497 694.3304,101.83505 694.3304,104.02182 C 694.3304,106.18138 695.39362,105.29214 696.73602,102.00981 z M 692.63558,102.48993 C 694.45004,100.48499 696.48504,92.484847 695.5757,90.931657 C 694.10245,88.415297 686.09251,79.499587 685.30507,79.499587 C 683.57204,79.499587 684.52233,81.403327 688.99798,86.897657 C 693.56016,92.498207 693.56016,92.498207 692.33249,96.882967 C 691.04775,101.47163 690.06472,101.9867 686.06768,100.16552 C 683.53948,99.013597 682.37371,95.640957 682.55828,90.012597 C 682.63288,87.736857 682.99466,88.453857 683.92857,92.728527 C 686.06242,102.49533 691.29062,103.11436 691.34852,93.607027 C 691.35599,92.376877 690.0395,90.210017 688.39364,88.743537 C 686.76103,87.288887 685.42525,85.558937 685.42525,84.899227 C 685.42525,82.924817 682.75868,81.147267 682.08716,82.674037 C 681.77797,83.377007 681.62335,83.107857 681.74358,82.075887 C 681.86379,81.043947 681.40557,80.005007 680.72532,79.767147 C 679.36734,79.292317 679.27333,79.965237 679.38041,89.394197 C 679.49685,99.646697 680.02135,100.93831 684.74846,102.61311 C 690.21468,104.54979 690.77943,104.54095 692.63558,102.48993 z M 708.94578,102.44203 C 709.1868,101.71898 708.73444,101.49785 707.7708,101.86765 C 706.90902,102.19834 706.20393,102.90363 706.20393,103.43495 C 706.20393,104.7355 708.45275,103.92112 708.94578,102.44203 z M 729.03465,101.71725 C 729.54636,101.401 730.68207,99.755657 731.55843,98.060947 C 733.04866,95.179177 733.03595,94.894937 731.36229,93.671127 C 730.35971,92.938017 727.0195,92.362587 723.7667,92.362587 C 717.51292,92.362587 716.78825,90.900807 722.50989,89.827427 C 724.74618,89.407897 726.96418,89.733677 729.0893,90.793827 C 732.53577,92.513157 734.61301,91.667017 733.57651,88.965967 C 732.76355,86.847437 723.9059,86.983087 718.25375,89.200647 C 714.91,90.512537 713.41483,91.907717 711.39733,95.598667 C 708.35891,101.1573 708.95413,102.30772 715.33678,103.21264 C 719.36221,103.78336 727.04951,102.94414 729.03465,101.71725 z M 705.2742,96.320427 C 705.78555,96.320427 706.20393,96.988307 706.20393,97.804607 C 706.20393,98.620917 706.67919,99.288797 707.26007,99.288797 C 707.87073,99.288797 708.04762,98.442557 707.67944,97.282527 C 706.38559,93.206017 716.53503,86.480397 725.25105,85.638537 C 730.45987,85.135427 730.40454,85.189317 728.82749,82.155557 C 727.19046,79.006417 727.20288,79.008327 725.11559,81.585707 C 723.50266,83.577337 722.28414,83.960687 717.42253,84.006017 C 713.89682,84.038877 710.35709,84.742017 708.33825,85.810537 C 706.51902,86.773407 704.81117,87.341807 704.54303,87.073667 C 704.27489,86.805547 705.02605,86.066737 706.21225,85.431907 C 707.39845,84.797077 709.23845,82.312067 710.30113,79.909707 C 712.45635,75.037477 713.50685,74.191047 712.52035,78.121597 C 711.75466,81.172387 713.23328,82.430687 717.60991,82.452817 C 721.637,82.473187 725.00367,79.965417 725.00367,76.945347 C 725.00367,74.017287 721.93263,72.573367 715.70499,72.573367 C 711.9684,72.573367 711.11638,73.028887 708.30182,76.531227 C 706.20889,79.135587 704.32132,80.489057 702.78214,80.489057 C 699.83443,80.489057 694.93443,74.951447 695.87415,72.682197 C 697.40879,68.976347 697.50428,67.375137 696.23738,66.592137 C 695.23246,65.971077 695.58829,65.496117 697.64409,64.714497 C 701.87567,63.105657 706.81331,63.465667 710.3852,65.643447 C 712.16703,66.729817 713.01379,67.620337 712.26689,67.622377 C 711.17201,67.625347 711.14757,67.913617 712.14069,69.110257 C 713.86613,71.189307 716.09853,70.959877 716.09853,68.703477 C 716.09853,64.370857 706.55432,59.590527 701.09529,61.188927 C 694.62777,63.082617 693.34094,64.091277 693.34094,67.267007 C 693.34094,69.262667 692.74792,70.610297 691.6913,71.015757 C 690.46293,71.487127 690.32779,71.934927 691.16213,72.769277 C 691.99647,73.603617 691.84921,74.209367 690.58549,75.141307 C 689.02841,76.289577 689.15374,76.667797 692.10412,79.724877 C 695.18712,82.919387 696.40692,85.235517 694.3304,83.952167 C 693.7862,83.615827 693.34094,84.017467 693.34094,84.844687 C 693.34094,86.336187 697.02167,90.383657 698.37802,90.383657 C 699.26888,90.383657 701.26485,95.982367 700.60814,96.639087 C 700.34033,96.906877 700.93328,98.614437 701.92576,100.43367 C 703.73027,103.74138 703.73027,103.74138 704.03737,100.0309 C 704.20627,97.990137 704.76285,96.320427 705.2742,96.320427 z M 675.35479,88.089077 C 675.53017,86.564267 675.1417,84.675717 674.49154,83.892337 C 673.54546,82.752367 673.62996,82.467967 674.91477,82.467967 C 678.6242,82.467967 676.1073,80.745117 671.06188,79.830597 C 666.75989,79.050837 665.18786,79.132467 663.64093,80.215997 C 660.49554,82.419107 661.31333,82.985257 667.1189,82.623767 C 670.41926,82.418267 672.56228,82.686787 672.56228,83.305827 C 672.56228,83.876757 670.70854,84.244257 668.35707,84.139497 C 662.84398,83.893897 662.73668,86.051247 668.1097,89.112677 C 673.03587,91.919467 674.94527,91.649717 675.35479,88.089077 z M 679.02107,76.445187 C 679.38154,75.309467 679.36891,72.749247 678.99302,70.755797 C 678.30957,67.131337 678.30957,67.131337 674.9027,71.089187 C 668.93303,78.024317 668.87032,78.510137 673.94498,78.510137 C 677.55807,78.510137 678.48541,78.132887 679.02107,76.445187 z M 705.21448,77.520667 C 705.21448,76.976457 703.85242,76.531227 702.1877,76.531227 C 700.42179,76.531227 699.41566,76.943387 699.77243,77.520667 C 700.10877,78.064877 701.47081,78.510137 702.79921,78.510137 C 704.1276,78.510137 705.21448,78.064877 705.21448,77.520667 z M 686.07884,72.748907 C 685.17516,71.750357 684.43581,69.743977 684.43581,68.290257 C 684.43581,66.130587 683.98336,65.647157 681.96215,65.647157 C 678.29789,65.647157 678.79753,68.793317 683.05552,72.531867 C 686.75419,75.779357 688.96498,75.938057 686.07884,72.748907 z M 708.9975,70.946687 C 708.82154,70.051997 707.50872,68.448187 706.08012,67.382627 C 703.93595,65.783347 703.10528,65.647237 701.32006,66.602657 C 698.46604,68.130067 699.20633,70.019317 702.81711,70.423217 C 704.40776,70.601137 706.13219,71.157717 706.64919,71.660057 C 708.12979,73.098667 709.34795,72.728617 708.9975,70.946687 z M 675.21951,68.443047 C 678.362,65.490837 678.11654,64.036617 674.90249,66.564797 C 673.46859,67.692707 671.35362,68.598097 670.20255,68.576807 C 668.51778,68.545627 668.70349,68.279507 671.15495,67.212067 C 672.82983,66.482767 675.65882,64.162587 677.44159,62.056137 C 679.22436,59.949657 680.1904,59.201007 679.58833,60.392427 C 678.98627,61.583867 678.88413,62.799977 679.36135,63.094917 C 680.51317,63.806777 685.42525,59.200737 685.42525,57.408817 C 685.42525,56.635187 687.90855,53.219137 690.94368,49.817607 C 695.32839,44.903567 696.34204,43.154627 695.87769,41.304537 C 695.41064,39.443597 695.75824,38.859397 697.609,38.394887 C 698.88264,38.075217 701.0036,37.953927 702.32222,38.125337 C 703.64086,38.296747 704.94237,37.991737 705.21448,37.447537 C 706.07132,35.733817 698.57025,35.766687 695.23528,37.491277 C 692.79401,38.753697 692.38141,39.332987 693.44422,40.005957 C 694.20373,40.486857 694.3487,40.887147 693.76641,40.895487 C 691.35223,40.930047 684.16153,48.455937 680.41741,54.866747 C 676.19861,62.090327 668.74625,68.546247 667.82317,65.777027 C 667.45742,64.679757 667.2288,64.671007 666.57479,65.729237 C 665.28779,67.811627 667.42257,70.594457 670.30704,70.594457 C 671.74936,70.594457 673.95999,69.626317 675.21951,68.443047 z M 698.8253,56.810497 C 698.21803,55.827897 699.49852,52.602877 701.50002,50.074047 C 703.14389,47.997067 704.16242,49.700007 703.09968,52.748597 C 701.88231,56.240727 699.73457,58.281707 698.8253,56.810497 z M 687.40418,64.162957 C 687.40418,63.338417 686.52466,62.678777 685.42525,62.678777 C 683.2353,62.678777 682.74421,64.209467 684.68317,64.991857 C 686.8363,65.860657 687.40418,65.687667 687.40418,64.162957 z M 725.60831,59.697137 C 726.25711,56.247277 726.25711,56.247277 723.63512,60.025797 C 722.19302,62.103967 721.29581,64.261667 721.64128,64.820677 C 722.64526,66.445107 724.8827,63.555367 725.60831,59.697137 z M 674.56347,60.947227 C 677.66332,57.239777 683.53227,47.556577 685.50551,42.893957 C 688.58891,35.608047 696.02,30.026577 702.63699,30.026577 C 707.4094,30.026577 711.09407,31.594537 714.8617,35.228667 C 717.09204,37.379967 718.07746,37.860447 718.07746,36.796657 C 718.07746,34.471857 713.78625,30.328727 709.51685,28.531447 C 699.10532,24.148497 687.88047,32.024307 679.88988,49.318907 C 677.85112,53.731497 674.74379,58.468077 672.38772,60.754557 C 669.82611,63.240507 668.92773,64.657697 669.91344,64.657697 C 670.76464,64.657697 672.85715,62.987977 674.56347,60.947227 z M 720.95349,59.549937 C 721.55339,57.829087 721.75862,56.159377 721.40955,55.839467 C 721.0605,55.519547 720.57348,55.822337 720.3273,56.512307 C 720.08111,57.202277 719.22317,58.423317 718.42075,59.225737 C 717.61834,60.028147 717.23911,61.133347 717.57803,61.681717 C 718.68317,63.469867 719.84216,62.737917 720.95349,59.549937 z M 697.97377,48.347917 C 700.45653,46.452187 702.87874,45.142697 703.35645,45.437937 C 703.83415,45.733177 704.22501,45.503197 704.22501,44.926887 C 704.22501,43.561537 703.79151,43.600677 699.98803,45.309507 C 695.46593,47.341157 690.60224,51.794707 692.90556,51.794707 C 693.21032,51.794707 695.49101,50.243647 697.97377,48.347917 z M 725.99314,47.449577 C 725.99314,46.085427 719.39123,42.889567 716.57325,42.889567 C 713.7741,42.889567 715.1293,44.652047 718.40028,45.265677 C 720.21043,45.605267 722.54804,46.531177 723.59495,47.323247 C 725.97,49.120187 725.99314,49.121407 725.99314,47.449577 z M 707.19338,43.879027 C 707.19338,43.334817 706.74812,42.889567 706.20393,42.889567 C 705.65971,42.889567 705.21448,43.334817 705.21448,43.879027 C 705.21448,44.423227 705.65971,44.868487 706.20393,44.868487 C 706.74812,44.868487 707.19338,44.423227 707.19338,43.879027 z M 714.1196,42.889567 C 714.1196,42.345357 712.78383,41.900107 711.15123,41.900107 C 709.51861,41.900107 708.18285,42.345357 708.18285,42.889567 C 708.18285,43.433757 709.51861,43.879027 711.15123,43.879027 C 712.78383,43.879027 714.1196,43.433757 714.1196,42.889567 z M 706.45129,41.848087 C 710.37504,40.758397 711.48877,38.931717 708.22941,38.931717 C 705.78401,38.931717 701.25661,40.962197 701.25661,42.058927 C 701.25661,43.127727 701.94395,43.099827 706.45129,41.848087 z M 722.03529,39.921187 C 722.03529,39.376987 721.59003,38.931717 721.04584,38.931717 C 720.50163,38.931717 720.05637,39.376987 720.05637,39.921187 C 720.05637,40.465387 720.50163,40.910637 721.04584,40.910637 C 721.59003,40.910637 722.03529,40.465387 722.03529,39.921187 z M 702.51913,34.650297 C 705.11822,34.721607 708.33066,35.491467 709.65791,36.361107 C 710.98515,37.230737 712.51801,37.942267 713.06429,37.942267 C 715.11068,37.942267 712.90169,35.209887 709.15112,33.101947 C 706.13635,31.407547 704.42533,31.069307 701.52863,31.595087 C 698.02908,32.230297 690.37255,35.526077 690.37255,36.397257 C 690.37255,36.613797 690.08424,37.542317 689.73184,38.460637 C 689.25208,39.710857 690.18425,39.425687 693.44231,37.325477 C 696.80296,35.159157 698.8693,34.550157 702.51913,34.650297 z M 684.22039,37.105677 C 684.50395,36.254117 684.02818,35.897547 682.90019,36.116207 C 681.93025,36.304227 680.93719,37.057167 680.69335,37.789397 C 680.4098,38.640957 680.88556,38.997507 682.01356,38.778847 C 682.9835,38.590837 683.97657,37.837897 684.22039,37.105677 z M 688.16688,32.191027 C 688.3823,31.544787 687.85356,31.016037 686.9919,31.016037 C 686.13024,31.016037 685.42525,31.721037 685.42525,32.582687 C 685.42525,34.329997 687.55534,34.025697 688.16688,32.191027 z M 723.51949,31.016037 C 723.04075,30.241447 722.47157,30.183977 721.81194,30.843617 C 721.26774,31.387817 721.14561,32.355917 721.54057,32.994957 C 722.01928,33.769557 722.58848,33.827027 723.2481,33.167387 C 723.7923,32.623187 723.91442,31.655077 723.51949,31.016037 z M 693.09404,28.295027 C 693.33559,27.569557 692.65357,27.058207 691.44448,27.058207 C 690.22909,27.058207 689.38311,27.697077 689.38311,28.614937 C 689.38311,30.433447 692.47066,30.167267 693.09404,28.295027 z M 720.81908,28.851597 C 720.20752,27.016907 718.07746,26.712617 718.07746,28.459927 C 718.07746,29.321597 718.78244,30.026577 719.6441,30.026577 C 720.50574,30.026577 721.0345,29.497827 720.81908,28.851597 z M 697.79351,26.068747 C 698.12984,25.524547 698.14186,24.653477 697.82023,24.133027 C 697.00632,22.816117 694.3304,24.002207 694.3304,25.679877 C 694.3304,27.261917 696.8792,27.548117 697.79351,26.068747 z M 716.89277,24.464427 C 717.14529,22.694577 716.79388,22.441537 714.65185,22.851017 C 711.79146,23.397817 710.72301,24.575367 711.68093,26.125327 C 712.79579,27.929207 716.57,26.726457 716.89277,24.464427 z M 703.97763,23.842457 C 703.75088,23.162187 702.74907,22.605617 701.75135,22.605617 C 700.75366,22.605617 699.75182,23.162187 699.52506,23.842457 C 699.26396,24.625777 700.08026,25.079277 701.75135,25.079277 C 703.42244,25.079277 704.23875,24.625777 703.97763,23.842457 z M 709.94711,23.264457 C 710.24273,22.367507 709.65809,22.050357 708.12319,22.275007 C 706.88074,22.456857 705.66842,23.199667 705.42912,23.925717 C 705.13351,24.822667 705.71813,25.139817 707.25305,24.915177 C 708.49548,24.733327 709.7078,23.990507 709.94711,23.264457 z"
       id="path3556"
       sodipodi:nodetypes="csssssssssssssssssscssccsscccssssssssssssssssssssssssssssssssssssccssccsssssssssssssssccssccsssssssssccssssssssssssssssssssssssssssssssssssccssssssssccsssccsssccsssccssssccsssssssssssssssssssccssccssccssccssssssssccssssccssssccsssccsssccsssccssccsssccsssssssccsssccssccsssccssccssccssccssccsssccsssc" />
  </g>
</svg>
